# xmcd CD database file
#
# Track frame offsets:
#	150
#	19734
#	39736
#	59947
#	79545
#
# Disc length: 1326 seconds
#
# Revision: 5
# Processed by: cddbd v1.5.2PL0 Copyright (c) Steve Scherf et al.
# Submitted via: CDex 1.70beta2
#
DISCID=3d052c05
DTITLE=角田信明 - 傾奇者恋歌
DYEAR=2009
DGENRE=Anime(J)
TTITLE0=傾奇者恋歌
TTITLE1=漢花
TTITLE2=傾奇者恋歌rimix
TTITLE3=傾奇者恋歌　カラオケ
TTITLE4=漢花　カラオケ
EXTD=YEAR: 2009
EXTT0=
EXTT1=
EXTT2=
EXTT3=
EXTT4=
PLAYORDER=
